HIERARCHY
ROOT Hips
{
  OFFSET 0 0.240689 0
  CHANNELS 6 Xposition Yposition Zposition Zrotation Xrotation Yrotation
  JOINT Bip01_Spine0
  {
    OFFSET 0 -24.7459 49.7988
    CHANNELS 6 Xposition Yposition Zposition Zrotation Xrotation Yrotation
    JOINT Bip01_Pelvis
    {
      OFFSET 0 0 0
      CHANNELS 6 Xposition Yposition Zposition Zrotation Xrotation Yrotation
      JOINT Bip01_Spine0_Tail
      {
        OFFSET -6.47486 -3.86022 0
        CHANNELS 6 Xposition Yposition Zposition Zrotation Xrotation Yrotation
        JOINT Bip01_Spine0_Tail1
        {
          OFFSET 10.3837 -0.00825882 0
          CHANNELS 6 Xposition Yposition Zposition Zrotation Xrotation Yrotation
          JOINT Bip01_Spine0_Tail2
          {
            OFFSET 10.3837 -0.00826263 0
            CHANNELS 6 Xposition Yposition Zposition Zrotation Xrotation Yrotation
            JOINT Bip01_Spine0_Tail3
            {
              OFFSET 10.3837 -0.00825882 0
              CHANNELS 6 Xposition Yposition Zposition Zrotation Xrotation Yrotation
              JOINT Bip01_Spine0_Tail4
              {
                OFFSET 10.3837 -0.00826263 0
                CHANNELS 6 Xposition Yposition Zposition Zrotation Xrotation Yrotation
                End Site
                {
                  OFFSET 0 0 0
                }
              }
            }
          }
        }
      }
      JOINT Bip01_R_Thigh
      {
        OFFSET 0 -1.52588e-005 -8.75617
        CHANNELS 6 Xposition Yposition Zposition Zrotation Xrotation Yrotation
        JOINT Bip01_R_Calf
        {
          OFFSET 19.7638 0 0
          CHANNELS 6 Xposition Yposition Zposition Zrotation Xrotation Yrotation
          JOINT Bip01_R_Foot
          {
            OFFSET 18.6534 0 0
            CHANNELS 6 Xposition Yposition Zposition Zrotation Xrotation Yrotation
            JOINT Bip01_R_Toe0
            {
              OFFSET 5.09145 13.9567 0
              CHANNELS 6 Xposition Yposition Zposition Zrotation Xrotation Yrotation
              JOINT Bip01_R_Toe01
              {
                OFFSET 4.28803 0 0
                CHANNELS 6 Xposition Yposition Zposition Zrotation Xrotation Yrotation
                JOINT Bip01_R_Toe02
                {
                  OFFSET 3.85801 0 0
                  CHANNELS 6 Xposition Yposition Zposition Zrotation Xrotation Yrotation
                  End Site
                  {
                    OFFSET 0 0 0
                  }
                }
              }
            }
          }
        }
      }
      JOINT Bip01_L_Thigh
      {
        OFFSET 0 1.52588e-005 8.75617
        CHANNELS 6 Xposition Yposition Zposition Zrotation Xrotation Yrotation
        JOINT Bip01_L_Calf
        {
          OFFSET 19.7638 0 0
          CHANNELS 6 Xposition Yposition Zposition Zrotation Xrotation Yrotation
          JOINT Bip01_L_Foot
          {
            OFFSET 18.6534 0 0
            CHANNELS 6 Xposition Yposition Zposition Zrotation Xrotation Yrotation
            JOINT Bip01_L_Toe0
            {
              OFFSET 5.09144 13.9567 0
              CHANNELS 6 Xposition Yposition Zposition Zrotation Xrotation Yrotation
              JOINT Bip01_L_Toe01
              {
                OFFSET 4.28802 0 0
                CHANNELS 6 Xposition Yposition Zposition Zrotation Xrotation Yrotation
                JOINT Bip01_L_Toe02
                {
                  OFFSET 3.85801 0 0
                  CHANNELS 6 Xposition Yposition Zposition Zrotation Xrotation Yrotation
                  End Site
                  {
                    OFFSET 0 0 0
                  }
                }
              }
            }
          }
        }
      }
      JOINT Bip01_Spine
      {
        OFFSET 9.14835 -0.00640869 -1.1e-005
        CHANNELS 6 Xposition Yposition Zposition Zrotation Xrotation Yrotation
        JOINT Bip01_Spine1
        {
          OFFSET 8.04366 -0.00638199 0
          CHANNELS 6 Xposition Yposition Zposition Zrotation Xrotation Yrotation
          JOINT Bip01_Spine2
          {
            OFFSET 8.04367 -0.00639343 0
            CHANNELS 6 Xposition Yposition Zposition Zrotation Xrotation Yrotation
            JOINT Bip01_Spine3
            {
              OFFSET 8.04304 -0.00831222 0
              CHANNELS 6 Xposition Yposition Zposition Zrotation Xrotation Yrotation
              JOINT Bip01_Neck
              {
                OFFSET 10.6685 1.06813 0
                CHANNELS 6 Xposition Yposition Zposition Zrotation Xrotation Yrotation
                JOINT Bip01_R_Clavicle
                {
                  OFFSET -3.21661 -4.89635 -9.04802
                  CHANNELS 6 Xposition Yposition Zposition Zrotation Xrotation Yrotation
                  JOINT Bip01_R_UpperArm
                  {
                    OFFSET 19.0492 0 0
                    CHANNELS 6 Xposition Yposition Zposition Zrotation Xrotation Yrotation
                    JOINT Bip01_R_Forearm
                    {
                      OFFSET 10.3706 0 0
                      CHANNELS 6 Xposition Yposition Zposition Zrotation Xrotation Yrotation
                      JOINT Bip01_R_Hand
                      {
                        OFFSET 22.8632 0 0
                        CHANNELS 6 Xposition Yposition Zposition Zrotation Xrotation Yrotation
                        JOINT Bip01_R_Finger0
                        {
                          OFFSET 6.48259 0.103651 0.504496
                          CHANNELS 6 Xposition Yposition Zposition Zrotation Xrotation Yrotation
                          JOINT Bip01_R_Finger01
                          {
                            OFFSET 3.66847 0 0
                            CHANNELS 6 Xposition Yposition Zposition Zrotation Xrotation Yrotation
                            End Site
                            {
                              OFFSET 0 0 0
                            }
                          }
                        }
                      }
                    }
                  }
                }
                JOINT Bip01_L_Clavicle
                {
                  OFFSET -3.21661 -4.89641 9.04797
                  CHANNELS 6 Xposition Yposition Zposition Zrotation Xrotation Yrotation
                  JOINT Bip01_L_UpperArm
                  {
                    OFFSET 19.0492 0 0
                    CHANNELS 6 Xposition Yposition Zposition Zrotation Xrotation Yrotation
                    JOINT Bip01_L_Forearm
                    {
                      OFFSET 10.3706 0 0
                      CHANNELS 6 Xposition Yposition Zposition Zrotation Xrotation Yrotation
                      JOINT Bip01_L_Hand
                      {
                        OFFSET 22.8631 0 0
                        CHANNELS 6 Xposition Yposition Zposition Zrotation Xrotation Yrotation
                        JOINT Bip01_L_Finger0
                        {
                          OFFSET 6.48257 0.103655 -0.504492
                          CHANNELS 6 Xposition Yposition Zposition Zrotation Xrotation Yrotation
                          JOINT Bip01_L_Finger01
                          {
                            OFFSET 3.66844 0 0
                            CHANNELS 6 Xposition Yposition Zposition Zrotation Xrotation Yrotation
                            End Site
                            {
                              OFFSET 0 0 0
                            }
                          }
                        }
                      }
                    }
                  }
                }
                JOINT Bip01_Neck1
                {
                  OFFSET 7.52459 -0.00656509 0
                  CHANNELS 6 Xposition Yposition Zposition Zrotation Xrotation Yrotation
                  JOINT Bip01_Neck2
                  {
                    OFFSET 8.4783 -0.00588226 0
                    CHANNELS 6 Xposition Yposition Zposition Zrotation Xrotation Yrotation
                    JOINT Bip01_Head
                    {
                      OFFSET 8.41606 0 0
                      CHANNELS 6 Xposition Yposition Zposition Zrotation Xrotation Yrotation
                      JOINT EyesBlue
                      {
                        OFFSET 0 0 0
                        CHANNELS 6 Xposition Yposition Zposition Zrotation Xrotation Yrotation
                        JOINT EyesBlue_2
                        {
                          OFFSET 0 -0.500007 0
                          CHANNELS 6 Xposition Yposition Zposition Zrotation Xrotation Yrotation
                          End Site
                          {
                            OFFSET 0 0 0
                          }
                        }
                      }
                      JOINT Bip01_Head2_Eyeleds
                      {
                        OFFSET 6.52751 7.61746 2.2e-005
                        CHANNELS 6 Xposition Yposition Zposition Zrotation Xrotation Yrotation
                        End Site
                        {
                          OFFSET 0 0 0
                        }
                      }
                      JOINT Bip01_Head_Muzzle
                      {
                        OFFSET 2.88628 13.9448 3.88994
                        CHANNELS 6 Xposition Yposition Zposition Zrotation Xrotation Yrotation
                        End Site
                        {
                          OFFSET 0 0 0
                        }
                      }
                      JOINT Bip01_Head1_Jaw
                      {
                        OFFSET 0.271065 1.32405 0
                        CHANNELS 6 Xposition Yposition Zposition Zrotation Xrotation Yrotation
                        JOINT _Bip01_Head11_TungeControler
                        {
                          OFFSET 4.61616 5.82872 0
                          CHANNELS 6 Xposition Yposition Zposition Zrotation Xrotation Yrotation
                          JOINT _Bip01_Ponytail3_tunge
                          {
                            OFFSET 5.17785 2.98805 0
                            CHANNELS 6 Xposition Yposition Zposition Zrotation Xrotation Yrotation
                            JOINT Bip01_Ponytail31
                            {
                              OFFSET 5.57569 0 0
                              CHANNELS 6 Xposition Yposition Zposition Zrotation Xrotation Yrotation
                              JOINT Bip01_Ponytail32
                              {
                                OFFSET 2.93165 0 0
                                CHANNELS 6 Xposition Yposition Zposition Zrotation Xrotation Yrotation
                                JOINT Bip01_Ponytail3Nub
                                {
                                  OFFSET 3.30155 0 0
                                  CHANNELS 6 Xposition Yposition Zposition Zrotation Xrotation Yrotation
                                  End Site
                                  {
                                    OFFSET 0 0 0
                                  }
                                }
                              }
                            }
                          }
                        }
                        JOINT Bip01_Head_JawNub
                        {
                          OFFSET 15.5776 -0.000389099 0
                          CHANNELS 6 Xposition Yposition Zposition Zrotation Xrotation Yrotation
                          End Site
                          {
                            OFFSET 0 0 0
                          }
                        }
                      }
                      JOINT Bip01_Ponytail2
                      {
                        OFFSET 9.40334 1.03973 -6.51764
                        CHANNELS 6 Xposition Yposition Zposition Zrotation Xrotation Yrotation
                        JOINT Bip01_Ponytail21
                        {
                          OFFSET 2.77018 -0.00640106 1.33514e-005
                          CHANNELS 6 Xposition Yposition Zposition Zrotation Xrotation Yrotation
                          End Site
                          {
                            OFFSET 0 0 0
                          }
                        }
                      }
                      JOINT Bip01_Ponytail1
                      {
                        OFFSET 9.40368 1.03969 6.51768
                        CHANNELS 6 Xposition Yposition Zposition Zrotation Xrotation Yrotation
                        JOINT Bip01_Ponytail11
                        {
                          OFFSET 2.77018 -0.00640487 0
                          CHANNELS 6 Xposition Yposition Zposition Zrotation Xrotation Yrotation
                          End Site
                          {
                            OFFSET 0 0 0
                          }
                        }
                      }
                    }
                  }
                }
              }
            }
          }
        }
      }
    }
  }
}
MOTION
Frames:	4
Frame Time:	0.0333333
0 0 0 -0 -90 -0 -0.000179325 -28.7007 14.1536 90.0005 -0.0024613 69.4615 0 0 0 -90.0002 0.00028677 -89.146 -6.47389 -3.85977 -0.0973519 137.382 -0.279608 -0.929445 10.3809 -0.007484 -0.002567 30.2485 -45.7284 2.96335 10.3866 -0.006023 0.004602 53.5885 -30.4317 -5.57746 10.3872 -0.005796 -0.004207 92.7206 1.50187 36.9011 10.3879 -0.006753 6.99997e-005 56.4663 0.00089126 -0.000265491 1.3e-005 -1.1e-005 -8.75617 -162.009 0.932142 175.83 19.7638 2e-006 -1e-006 -151.768 0.000882842 -0.00128007 18.6534 -1e-006 1e-006 63.144 0.00540445 1.31201 5.09144 13.9567 -1e-006 70.4005 -2.79034 -4.14617 4.288 1e-006 -1.77636e-015 19.9984 2.29281e-006 -1.03421e-005 3.85799 1e-006 -4.24549e-013 -45 -2.56481e-005 -1.0219e-005 -1.1e-005 9e-006 8.75617 -158.678 -0.453059 -174.461 19.7638 0 1.77636e-015 -151.837 0.00104719 -0.00160805 18.6534 -1e-006 -3.01981e-014 66.4999 -0.313194 -1.67622 5.09143 13.9567 9.91424e-007 70.4015 2.7952 4.14898 4.288 4.70735e-014 -1e-006 19.9991 -1.77112e-005 -8.66441e-007 3.85799 1e-006 -1e-006 -45 2.81882e-006 1.97209e-006 9.14721 -0.006311 0.13749 0.0458585 -0.000547536 -0.859036 8.04461 -0.006334 -1.3713e-015 8.5 7.35033e-006 -1.85935e-005 8.04434 -0.006294 9.7e-005 7.97369 0.00137046 8.23136e-006 8.04535 -0.008085 2.4e-005 13.189 -0.000734196 0.000580914 10.6709 1.06821 0.000164 11.28 0.00221013 0.00176698 -4.96325 -3.11591 -9.0479 168.68 -67.4186 142.012 19.0492 -1e-006 -3e-006 81.8571 26.8647 -92.471 10.3706 -3.55271e-015 -3.55271e-015 -118.05 2.25222e-005 -0.000150584 22.8631 1.42109e-014 -1.06581e-014 12.3166 23.8249 1.41039 6.48256 0.103651 0.504494 -18.2002 -13.6575 -7.39831 3.66843 -2e-006 2e-006 40.107 3.51805e-005 -1.00986e-005 -4.96306 -3.11576 9.04777 168.679 74.7506 -141.375 19.0492 1e-006 3e-006 87.176 -27.4656 89.1661 10.3706 -1e-006 -1e-006 -118.155 -0.000227582 0.000939205 22.8631 2.03393e-013 1e-006 12.7027 -34.6264 -2.91895 6.48256 0.103649 -0.504497 -17.3318 13.7667 7.19411 3.66843 -3e-006 3.9968e-013 39.4727 -1.32459e-007 -1.56884e-006 7.52606 -0.006635 3.2e-005 1.75723 -0.0363509 0.00154664 8.47433 -0.00657 3e-005 -5.20684 0.000737392 0.00210181 8.41604 0 -5.37764e-017 -75.9665 -1.94706e-005 0.00473863 -1e-006 4e-006 -1e-006 -23.1098 1.37701e-015 90 1.14441e-005 -0.500007 3.82152e-006 -180 90 -90 0 0 0 -99.435 -7.01671e-015 -180 2.06851 15.2161 3.8903 -22.989 1.37021e-015 90 0 0 0 -85.3358 0.000106812 -180 0 0 0 -120.289 2.02926e-008 -5.53884e-009 0 0 0 133.74 2.13885e-008 1.23237e-008 0 0 0 1.83152 3.43296e-010 3.06646e-010 0 0 0 -17.65 -3.57265e-009 -3.0119e-009 0 0 0 -26.1943 -3.62873e-009 -2.60138e-009 15.5776 -0.000396 -7e-006 -9.54166e-015 0 7.76503e-018 9.40426 1.04082 -6.51497 21.1728 -63.1118 116.902 2.77262 -0.004957 0.002971 29.1723 -27.381 45.0491 9.40468 1.04075 6.51499 21.0839 63.2053 -116.728 2.77267 -0.004968 -0.002937 29.15 27.4183 -44.9215 
0 0 0 -0 -90 -0 0.00147804 -28.7007 14.1533 90.0009 0.00454096 69.4599 0 0 0 -90.0004 0.00028795 -89.135 -6.47384 -3.85977 -0.0995813 137.295 -0.332569 -0.709786 10.3809 -0.007484 -0.002567 29.9823 -45.4659 2.77786 10.3866 -0.006023 0.004602 53.8971 -30.6615 -5.94846 10.3872 -0.005796 -0.004207 93.199 1.62271 36.8602 10.3879 -0.006753 6.99997e-005 51.7515 0.000786601 0.000898042 1.3e-005 -1.1e-005 -8.75617 -162.197 0.754656 175.37 19.7638 2e-006 -1e-006 -151.755 0.00088255 -0.00128026 18.6534 -1e-006 1e-006 62.9527 -0.486155 1.12273 5.09144 13.9567 -1e-006 70.413 -2.79708 -4.15199 4.288 1e-006 1.77636e-015 19.9904 2.29826e-006 -1.03452e-005 3.85799 1e-006 -4.36984e-013 -45 -2.565e-005 -1.02219e-005 -1.1e-005 9e-006 8.75617 -158.634 -0.389634 -174.299 19.7638 -1.24345e-014 -3.01981e-014 -151.84 0.00104718 -0.00160807 18.6534 -1e-006 -3.37508e-014 66.5448 -0.164551 -1.64033 5.09143 13.9567 9.99894e-007 70.41 2.79567 4.14899 4.288 4.44089e-014 -1e-006 19.9929 -1.7459e-005 -8.95526e-007 3.85799 1e-006 -1e-006 -45 2.64806e-006 1.85086e-006 9.14715 -0.006311 0.140677 0.0449568 -0.00054864 -0.877669 8.04461 -0.006334 -2.02095e-016 8.5 7.35033e-006 -1.85935e-005 8.04434 -0.006294 9.7e-005 7.97186 0.00155679 0.000437121 8.04535 -0.008085 2.4e-005 13.1883 -0.00452204 0.00131908 10.6709 1.06821 0.000164 11.1498 0.0022061 0.001772 -4.9562 -3.12717 -9.0479 168.809 -67.4234 142.031 19.0492 -1e-006 -3e-006 81.7248 26.542 -92.394 10.3706 -7.10543e-015 -1.06581e-014 -118.004 2.19817e-005 -0.00015067 22.8631 2.30926e-014 -3.55271e-015 11.9212 23.816 1.51922 6.48256 0.103651 0.504494 -18.2002 -13.6575 -7.39831 3.66843 -2e-006 2e-006 40.107 3.53213e-005 -1.02007e-005 -4.95602 -3.12702 9.04777 168.812 74.7714 -141.456 19.0492 1e-006 3e-006 87.0766 -26.8976 89.1642 10.3706 -1e-006 -1e-006 -118.231 -0.000228459 0.000938878 22.8631 1.84741e-013 1e-006 12.3434 -34.5493 -3.00822 6.48256 0.103649 -0.504497 -17.42 13.756 7.2153 3.66843 -3e-006 3.96128e-013 39.4727 -3.13587e-007 -1.47192e-006 7.52606 -0.006635 3.2e-005 1.68825 -0.0363396 0.00194876 8.47433 -0.00657 3e-005 -5.28097 0.00157919 -0.00129815 8.41604 0 4.35416e-016 -76.0507 -0.000391306 0.00335118 -1e-006 4e-006 -1e-006 -23.1098 1.37701e-015 90 1.14441e-005 -0.500007 3.82322e-006 180 90 -90 0 0 0 -100.085 -7.01671e-015 -180 2.06851 15.2161 3.8903 -22.989 1.37021e-015 90 0 0 0 -85.3358 0.000106812 -180 0 0 0 -120.289 3.28632e-008 -8.24597e-009 0 0 0 133.74 3.34624e-008 2.02634e-008 0 0 0 1.83152 2.2498e-010 4.49699e-010 0 0 0 -17.65 -4.9263e-009 -4.33247e-009 0 0 0 -26.1943 -6.52955e-009 -3.8359e-009 15.5776 -0.000396 -7e-006 3.36754e-037 -6.21202e-018 3.10601e-018 9.40426 1.04082 -6.51497 22.19 -63.2206 118.122 2.77262 -0.004957 0.002971 29.3762 -27.4568 45.3362 9.40468 1.04075 6.51499 22.1008 63.3197 -117.943 2.77267 -0.004968 -0.002937 29.3531 27.4957 -45.2024 
0 0 0 -0 -90 -0 0.000646229 -28.7007 14.153 90.0005 0.00109214 69.4624 0 0 0 -90.0004 0.000285085 -89.1408 -6.47383 -3.85977 -0.0999575 137.323 -0.380003 -0.474918 10.3809 -0.007484 -0.002567 29.4279 -45.0039 2.45785 10.3866 -0.006023 0.004602 53.8348 -30.6931 -6.109 10.3872 -0.005796 -0.004207 93.1904 1.6074 36.8247 10.3879 -0.006753 6.99997e-005 47.1821 0.000847253 0.00044772 1.3e-005 -1.1e-005 -8.75617 -162.356 0.525653 174.792 19.7638 2e-006 -1e-006 -151.691 0.000881331 -0.00128086 18.6534 -1e-006 1e-006 62.7536 -1.07161 0.891707 5.09144 13.9567 -1e-006 70.3919 -2.79298 -4.14957 4.288 1e-006 0 20.0073 2.3277e-006 -1.03386e-005 3.85799 1e-006 -4.35207e-013 -45 -2.56712e-005 -1.02448e-005 -1.1e-005 9e-006 8.75617 -158.707 -0.309104 -174.082 19.7638 -7.10543e-015 -1.59872e-014 -151.821 0.00104681 -0.00160796 18.6534 -1e-006 -3.90799e-014 66.4756 0.0536694 -1.56918 5.09143 13.9567 1.01203e-006 70.3912 2.7935 4.14879 4.288 6.03961e-014 -1e-006 20.0065 -1.72076e-005 -9.53259e-007 3.85799 1e-006 -1e-006 -45 2.505e-006 1.78392e-006 9.14714 -0.006311 0.141224 0.0474973 -0.000588759 -0.879117 8.04461 -0.006334 -1.64972e-015 8.5 7.35033e-006 -1.85935e-005 8.04434 -0.006294 9.7e-005 7.9756 0.00154972 0.000307829 8.04535 -0.008085 2.4e-005 13.1903 0.00307542 0.000621602 10.6709 1.06821 0.000163999 10.9832 0.00220093 0.00177841 -4.94702 -3.14152 -9.0479 168.979 -67.4131 141.992 19.0492 -1e-006 -3e-006 81.5846 26.2593 -92.3528 10.3706 -7.10543e-015 7.10543e-015 -117.92 2.14871e-005 -0.000150668 22.8631 1.59872e-014 -3.19744e-014 11.4542 23.7539 1.63869 6.48256 0.103651 0.504494 -18.2002 -13.6575 -7.39831 3.66843 -2e-006 2e-006 40.107 3.54905e-005 -1.03307e-005 -4.94683 -3.14139 9.04777 168.97 74.7799 -141.477 19.0492 1e-006 3e-006 87.0086 -26.5514 89.219 10.3706 -1e-006 -1e-006 -118.172 -0.000227093 0.000939119 22.8631 2.1938e-013 1e-006 12.0214 -34.4546 -3.06315 6.48256 0.103649 -0.504497 -17.5009 13.7462 7.23416 3.66843 -3e-006 4.0501e-013 39.4727 -4.29065e-007 -1.41097e-006 7.52606 -0.006635 3.2e-005 1.60276 -0.0363462 0.00176104 8.47433 -0.00657 3e-005 -5.37095 0.0012232 4.27372e-005 8.41604 -3.55271e-015 1.47105e-015 -76.1776 -8.06583e-005 -0.00177249 -1e-006 4e-006 -1e-006 -23.1098 1.37701e-015 90 1.14441e-005 -0.500007 3.82547e-006 -180 90 -90 0 0 0 -100.735 -7.01671e-015 -180 2.0685 15.2161 3.8903 -22.989 1.37021e-015 90 0 0 0 -85.3358 0.000106812 -180 0 0 0 -120.289 4.84389e-008 -1.35076e-008 0 0 0 133.74 5.11283e-008 2.92961e-008 0 0 0 1.83152 5.39255e-010 7.38081e-010 0 0 0 -17.65 -8.19163e-009 -7.1618e-009 0 0 0 -26.1943 -9.6384e-009 -6.31974e-009 15.5776 -0.000396 -7e-006 2.22639e-014 0 -3.10601e-018 9.40426 1.04082 -6.51497 24.3175 -63.4208 120.659 2.77262 -0.004957 0.002971 29.8004 -27.613 45.9322 9.40468 1.04075 6.51499 24.2263 63.5302 -120.471 2.77267 -0.004968 -0.002937 29.7751 27.6569 -45.7854 
0 0 0 -0 -90 -0 -0.00012777 -28.7007 14.1528 90.0002 -0.00209651 69.4648 0 0 0 -90.0003 0.000291854 -89.1465 -6.47383 -3.85977 -0.100252 137.355 -0.426794 -0.241062 10.3809 -0.007484 -0.002567 28.879 -44.5402 2.14294 10.3866 -0.006023 0.004602 53.7743 -30.7134 -6.23375 10.3872 -0.005796 -0.004207 93.1705 1.59131 36.7962 10.3879 -0.006753 6.99997e-005 42.6083 0.000918729 2.92924e-005 1.3e-005 -1.1e-005 -8.75617 -162.52 0.297214 174.212 19.7638 2e-006 -1e-006 -151.631 0.000880192 -0.0012814 18.6534 -1e-006 1e-006 62.5517 -1.65767 0.660653 5.09144 13.9567 -1e-006 70.3739 -2.78925 -4.14732 4.288 1e-006 0 20.0217 2.35531e-006 -1.0333e-005 3.85799 1e-006 -4.26326e-013 -45 -2.56908e-005 -1.02662e-005 -1.1e-005 9e-006 8.75617 -158.773 -0.228907 -173.866 19.7638 -5.32907e-015 -7.10543e-015 -151.805 0.00104651 -0.00160784 18.6534 -1e-006 -3.73035e-014 66.4149 0.27214 -1.49919 5.09143 13.9567 1.0242e-006 70.3752 2.79164 4.1486 4.288 5.70655e-014 -1e-006 20.0182 -1.69514e-005 -1.00997e-006 3.85799 1e-006 -1e-006 -45 2.35681e-006 1.71171e-006 9.14714 -0.006311 0.141653 0.0496554 -0.000622751 -0.880128 8.04461 -0.006334 3.71231e-016 8.5 7.35033e-006 -1.85935e-005 8.04434 -0.006294 9.7e-005 7.9788 0.00154441 0.000205384 8.04535 -0.008085 2.4e-005 13.192 0.00954681 4.51531e-005 10.6709 1.06821 0.000163999 10.8168 0.00219575 0.0017848 -4.93785 -3.15586 -9.0479 169.148 -67.4043 141.958 19.0492 -1e-006 -3e-006 81.4429 25.9672 -92.307 10.3706 -2.84217e-014 -7.10543e-015 -117.836 2.10474e-005 -0.000150674 22.8631 3.10862e-014 -1.42109e-014 10.9837 23.6967 1.75982 6.48256 0.103651 0.504494 -18.2002 -13.6575 -7.39831 3.66843 -2e-006 2e-006 40.107 3.56574e-005 -1.04587e-005 -4.93765 -3.15576 9.04777 169.128 74.79 -141.505 19.0492 1e-006 3e-006 86.9353 -26.1728 89.2673 10.3706 -1e-006 -1e-006 -118.124 -0.000225894 0.000939309 22.8631 2.22933e-013 1e-006 11.6869 -34.3594 -3.12302 6.48256 0.103649 -0.504497 -17.5846 13.736 7.25375 3.66843 -3e-006 4.15668e-013 39.4727 -5.56224e-007 -1.34348e-006 7.52606 -0.006635 3.2e-005 1.51706 -0.0363517 0.00159499 8.47433 -0.00657 3e-005 -5.46097 0.000875463 0.00128149 8.41604 3.55271e-015 1.06165e-015 -76.3033 0.000175878 -0.00592826 -1e-006 4e-006 -1e-006 -23.1098 1.37701e-015 90 1.14441e-005 -0.500007 3.82772e-006 -180 90 -90 0 0 0 -101.385 -7.01671e-015 -180 2.0685 15.2161 3.8903 -22.989 1.37021e-015 90 0 0 0 -85.3358 0.000106812 -180 0 0 0 -120.289 6.13436e-008 -1.83509e-008 0 0 0 133.74 6.63692e-008 3.65757e-008 0 0 0 1.83152 8.07406e-010 1.00253e-009 0 0 0 -17.65 -1.11439e-008 -9.75073e-009 0 0 0 -26.1943 -1.24348e-008 -8.60821e-009 15.5776 -0.000396 -7e-006 -1.34702e-036 -6.21202e-018 -1.2424e-017 9.40426 1.04082 -6.51497 26.4493 -63.5647 123.207 2.77262 -0.004957 0.002971 30.2239 -27.7604 46.5225 9.40468 1.04075 6.51499 26.3584 63.6847 -123.012 2.77267 -0.004968 -0.002937 30.1965 27.8093 -46.363 
